<mxfile host="app.diagrams.net" modified="2022-06-13T21:28:33.155Z" agent="5.0 (Windows NT 10.0; Win64; x64) AppleWebKit/537.36 (KHTML, like Gecko) Chrome/102.0.0.0 Safari/537.36" etag="qiLcXtaatzZkTOw1G34f" version="19.0.2" type="github">
  <diagram name="Page-1" id="c37626ed-c26b-45fb-9056-f9ebc6bb27b6">
    <mxGraphModel dx="931" dy="1089" grid="0" gridSize="10" guides="1" tooltips="1" connect="1" arrows="1" fold="1" page="1" pageScale="1" pageWidth="1100" pageHeight="850" background="#FFFFFF" math="0" shadow="0">
      <root>
        <mxCell id="0" />
        <mxCell id="1" parent="0" />
        <mxCell id="0qF3C7HbT4sm0VxjOWYy-23" value="" style="rounded=0;whiteSpace=wrap;html=1;labelBackgroundColor=#ECFF42;fillColor=#FF0A0A;imageAspect=1;gradientColor=none;strokeColor=none;opacity=60;" parent="1" vertex="1">
          <mxGeometry x="1309" y="370" width="580" height="430" as="geometry" />
        </mxCell>
        <mxCell id="0qF3C7HbT4sm0VxjOWYy-6" style="edgeStyle=orthogonalEdgeStyle;rounded=0;orthogonalLoop=1;jettySize=auto;html=1;entryX=0;entryY=0.5;entryDx=0;entryDy=0;entryPerimeter=0;exitX=0.5;exitY=0;exitDx=0;exitDy=0;exitPerimeter=0;" parent="1" source="1c7a67bf8fd3230f-10" target="1c7a67bf8fd3230f-48" edge="1">
          <mxGeometry relative="1" as="geometry" />
        </mxCell>
        <mxCell id="0qF3C7HbT4sm0VxjOWYy-22" style="edgeStyle=entityRelationEdgeStyle;rounded=0;orthogonalLoop=1;jettySize=auto;html=1;exitX=0.93;exitY=0.95;exitDx=0;exitDy=0;exitPerimeter=0;" parent="1" source="1c7a67bf8fd3230f-10" target="0qF3C7HbT4sm0VxjOWYy-17" edge="1">
          <mxGeometry relative="1" as="geometry" />
        </mxCell>
        <mxCell id="0qF3C7HbT4sm0VxjOWYy-27" style="edgeStyle=orthogonalEdgeStyle;rounded=0;orthogonalLoop=1;jettySize=auto;html=1;" parent="1" source="1c7a67bf8fd3230f-10" target="0qF3C7HbT4sm0VxjOWYy-2" edge="1">
          <mxGeometry relative="1" as="geometry" />
        </mxCell>
        <mxCell id="1c7a67bf8fd3230f-10" value="" style="shape=mxgraph.cisco.security.ios_firewall;html=1;dashed=0;fillColor=#036897;strokeColor=#ffffff;strokeWidth=2;verticalLabelPosition=bottom;verticalAlign=top;rounded=0;shadow=0;comic=0;fontFamily=Verdana;fontSize=12;" parent="1" vertex="1">
          <mxGeometry x="1380" y="540" width="40" height="66" as="geometry" />
        </mxCell>
        <mxCell id="0qF3C7HbT4sm0VxjOWYy-8" style="edgeStyle=orthogonalEdgeStyle;rounded=0;orthogonalLoop=1;jettySize=auto;html=1;entryX=0.12;entryY=0.1;entryDx=0;entryDy=0;entryPerimeter=0;" parent="1" source="1c7a67bf8fd3230f-15" target="1c7a67bf8fd3230f-48" edge="1">
          <mxGeometry relative="1" as="geometry" />
        </mxCell>
        <mxCell id="1c7a67bf8fd3230f-15" value="Init7" style="ellipse;shape=cloud;whiteSpace=wrap;html=1;rounded=0;shadow=0;comic=0;strokeWidth=1;fontFamily=Verdana;fontSize=12;" parent="1" vertex="1">
          <mxGeometry x="1340" y="180" width="120" height="80" as="geometry" />
        </mxCell>
        <mxCell id="1c7a67bf8fd3230f-48" value="&lt;span style=&quot;background-color: rgb(255, 255, 10);&quot;&gt;MikroTik Managed Router&lt;/span&gt;" style="shape=mxgraph.cisco.routers.router;html=1;dashed=0;fillColor=#036897;strokeColor=#ffffff;strokeWidth=2;verticalLabelPosition=bottom;verticalAlign=top;rounded=0;shadow=0;comic=0;fontFamily=Verdana;fontSize=12;" parent="1" vertex="1">
          <mxGeometry x="1560" y="399" width="78" height="53" as="geometry" />
        </mxCell>
        <mxCell id="0qF3C7HbT4sm0VxjOWYy-21" style="rounded=0;orthogonalLoop=1;jettySize=auto;html=1;exitX=0;exitY=1;exitDx=0;exitDy=0;exitPerimeter=0;entryX=0.98;entryY=0.5;entryDx=0;entryDy=0;entryPerimeter=0;edgeStyle=entityRelationEdgeStyle;" parent="1" source="0qF3C7HbT4sm0VxjOWYy-2" target="0qF3C7HbT4sm0VxjOWYy-16" edge="1">
          <mxGeometry relative="1" as="geometry" />
        </mxCell>
        <mxCell id="0qF3C7HbT4sm0VxjOWYy-26" style="edgeStyle=orthogonalEdgeStyle;rounded=0;orthogonalLoop=1;jettySize=auto;html=1;exitX=0.5;exitY=0;exitDx=0;exitDy=0;exitPerimeter=0;entryX=1;entryY=0.5;entryDx=0;entryDy=0;entryPerimeter=0;" parent="1" source="0qF3C7HbT4sm0VxjOWYy-2" target="1c7a67bf8fd3230f-48" edge="1">
          <mxGeometry relative="1" as="geometry" />
        </mxCell>
        <mxCell id="0qF3C7HbT4sm0VxjOWYy-28" style="edgeStyle=orthogonalEdgeStyle;rounded=0;orthogonalLoop=1;jettySize=auto;html=1;entryX=1;entryY=0.5;entryDx=0;entryDy=0;entryPerimeter=0;" parent="1" source="0qF3C7HbT4sm0VxjOWYy-2" target="1c7a67bf8fd3230f-10" edge="1">
          <mxGeometry relative="1" as="geometry" />
        </mxCell>
        <mxCell id="0qF3C7HbT4sm0VxjOWYy-2" value="&lt;span style=&quot;font-family: Helvetica;&quot;&gt;Sophos XGS3100&lt;/span&gt;" style="shape=mxgraph.cisco.security.ios_firewall;html=1;dashed=0;fillColor=#036897;strokeColor=#ffffff;strokeWidth=2;verticalLabelPosition=bottom;verticalAlign=top;rounded=0;shadow=0;comic=0;fontFamily=Verdana;fontSize=12;" parent="1" vertex="1">
          <mxGeometry x="1780" y="540" width="40" height="66" as="geometry" />
        </mxCell>
        <mxCell id="0qF3C7HbT4sm0VxjOWYy-7" style="edgeStyle=orthogonalEdgeStyle;rounded=0;orthogonalLoop=1;jettySize=auto;html=1;entryX=0.88;entryY=0.1;entryDx=0;entryDy=0;entryPerimeter=0;" parent="1" source="0qF3C7HbT4sm0VxjOWYy-4" target="1c7a67bf8fd3230f-48" edge="1">
          <mxGeometry relative="1" as="geometry" />
        </mxCell>
        <mxCell id="0qF3C7HbT4sm0VxjOWYy-4" value="Init7" style="ellipse;shape=cloud;whiteSpace=wrap;html=1;rounded=0;shadow=0;comic=0;strokeWidth=1;fontFamily=Verdana;fontSize=12;" parent="1" vertex="1">
          <mxGeometry x="1740" y="180" width="120" height="80" as="geometry" />
        </mxCell>
        <mxCell id="0qF3C7HbT4sm0VxjOWYy-13" value="" style="whiteSpace=wrap;html=1;aspect=fixed;labelBackgroundColor=#ECFF42;fillColor=#F2FFA1;" parent="1" vertex="1">
          <mxGeometry x="1600" y="800" width="400" height="400" as="geometry" />
        </mxCell>
        <mxCell id="0qF3C7HbT4sm0VxjOWYy-15" value="" style="whiteSpace=wrap;html=1;aspect=fixed;labelBackgroundColor=#ECFF42;fillColor=#35FF2E;" parent="1" vertex="1">
          <mxGeometry x="1200" y="800" width="400" height="400" as="geometry" />
        </mxCell>
        <mxCell id="0qF3C7HbT4sm0VxjOWYy-18" style="edgeStyle=orthogonalEdgeStyle;rounded=0;orthogonalLoop=1;jettySize=auto;html=1;entryX=0;entryY=0.5;entryDx=0;entryDy=0;entryPerimeter=0;" parent="1" source="0qF3C7HbT4sm0VxjOWYy-16" target="1c7a67bf8fd3230f-10" edge="1">
          <mxGeometry relative="1" as="geometry">
            <mxPoint x="1380" y="640" as="targetPoint" />
          </mxGeometry>
        </mxCell>
        <mxCell id="0qF3C7HbT4sm0VxjOWYy-46" style="edgeStyle=none;rounded=0;orthogonalLoop=1;jettySize=auto;html=1;" parent="1" source="0qF3C7HbT4sm0VxjOWYy-16" target="0qF3C7HbT4sm0VxjOWYy-35" edge="1">
          <mxGeometry relative="1" as="geometry" />
        </mxCell>
        <mxCell id="0qF3C7HbT4sm0VxjOWYy-16" value="L3 Core Switch" style="shape=mxgraph.cisco.switches.workgroup_switch;sketch=0;html=1;pointerEvents=1;dashed=0;fillColor=#036897;strokeColor=#ffffff;strokeWidth=2;verticalLabelPosition=bottom;verticalAlign=top;align=center;outlineConnect=0;labelBackgroundColor=#ECFF42;" parent="1" vertex="1">
          <mxGeometry x="1400" y="710" width="80" height="40" as="geometry" />
        </mxCell>
        <mxCell id="0qF3C7HbT4sm0VxjOWYy-19" style="edgeStyle=orthogonalEdgeStyle;rounded=0;orthogonalLoop=1;jettySize=auto;html=1;entryX=1;entryY=0.5;entryDx=0;entryDy=0;entryPerimeter=0;" parent="1" source="0qF3C7HbT4sm0VxjOWYy-17" target="0qF3C7HbT4sm0VxjOWYy-2" edge="1">
          <mxGeometry relative="1" as="geometry" />
        </mxCell>
        <mxCell id="0qF3C7HbT4sm0VxjOWYy-45" style="rounded=0;orthogonalLoop=1;jettySize=auto;html=1;entryX=0.5;entryY=0;entryDx=0;entryDy=0;entryPerimeter=0;" parent="1" source="0qF3C7HbT4sm0VxjOWYy-17" target="0qF3C7HbT4sm0VxjOWYy-36" edge="1">
          <mxGeometry relative="1" as="geometry" />
        </mxCell>
        <mxCell id="0qF3C7HbT4sm0VxjOWYy-17" value="L3 Core Switch" style="shape=mxgraph.cisco.switches.workgroup_switch;sketch=0;html=1;pointerEvents=1;dashed=0;fillColor=#036897;strokeColor=#ffffff;strokeWidth=2;verticalLabelPosition=bottom;verticalAlign=top;align=center;outlineConnect=0;labelBackgroundColor=#ECFF42;" parent="1" vertex="1">
          <mxGeometry x="1720" y="710" width="80" height="40" as="geometry" />
        </mxCell>
        <mxCell id="0qF3C7HbT4sm0VxjOWYy-31" value="&lt;span style=&quot;background-color: rgb(236, 255, 66);&quot;&gt;Cluster Management Link&lt;/span&gt;" style="text;html=1;align=center;verticalAlign=middle;resizable=0;points=[];autosize=1;strokeColor=none;fillColor=none;" parent="1" vertex="1">
          <mxGeometry x="1524" y="550" width="150" height="20" as="geometry" />
        </mxCell>
        <mxCell id="0qF3C7HbT4sm0VxjOWYy-32" value="Firewall Zone" style="text;html=1;align=center;verticalAlign=middle;resizable=0;points=[];autosize=1;strokeColor=none;fillColor=#FF1212;" parent="1" vertex="1">
          <mxGeometry x="1799" y="370" width="90" height="20" as="geometry" />
        </mxCell>
        <mxCell id="0qF3C7HbT4sm0VxjOWYy-33" value="DMZ Zone" style="text;html=1;align=center;verticalAlign=middle;resizable=0;points=[];autosize=1;strokeColor=#d6b656;fillColor=#fff2cc;" parent="1" vertex="1">
          <mxGeometry x="1930" y="800" width="70" height="20" as="geometry" />
        </mxCell>
        <mxCell id="0qF3C7HbT4sm0VxjOWYy-34" value="LAN Zone" style="text;html=1;align=center;verticalAlign=middle;resizable=0;points=[];autosize=1;strokeColor=none;fillColor=#45FF0D;" parent="1" vertex="1">
          <mxGeometry x="1200" y="800" width="70" height="20" as="geometry" />
        </mxCell>
        <mxCell id="0qF3C7HbT4sm0VxjOWYy-44" style="edgeStyle=entityRelationEdgeStyle;rounded=0;orthogonalLoop=1;jettySize=auto;html=1;exitX=0.98;exitY=0.5;exitDx=0;exitDy=0;exitPerimeter=0;entryX=0;entryY=0.5;entryDx=0;entryDy=0;entryPerimeter=0;" parent="1" source="0qF3C7HbT4sm0VxjOWYy-35" target="0qF3C7HbT4sm0VxjOWYy-17" edge="1">
          <mxGeometry relative="1" as="geometry" />
        </mxCell>
        <mxCell id="0qF3C7HbT4sm0VxjOWYy-60" style="edgeStyle=none;rounded=0;orthogonalLoop=1;jettySize=auto;html=1;entryX=0.5;entryY=0;entryDx=0;entryDy=0;entryPerimeter=0;" parent="1" source="0qF3C7HbT4sm0VxjOWYy-35" target="0qF3C7HbT4sm0VxjOWYy-56" edge="1">
          <mxGeometry relative="1" as="geometry" />
        </mxCell>
        <mxCell id="0qF3C7HbT4sm0VxjOWYy-61" style="edgeStyle=none;rounded=0;orthogonalLoop=1;jettySize=auto;html=1;entryX=0.5;entryY=0;entryDx=0;entryDy=0;entryPerimeter=0;" parent="1" source="0qF3C7HbT4sm0VxjOWYy-35" target="0qF3C7HbT4sm0VxjOWYy-57" edge="1">
          <mxGeometry relative="1" as="geometry" />
        </mxCell>
        <mxCell id="0qF3C7HbT4sm0VxjOWYy-64" style="edgeStyle=none;rounded=0;orthogonalLoop=1;jettySize=auto;html=1;entryX=0.5;entryY=0;entryDx=0;entryDy=0;entryPerimeter=0;" parent="1" source="0qF3C7HbT4sm0VxjOWYy-35" target="0qF3C7HbT4sm0VxjOWYy-62" edge="1">
          <mxGeometry relative="1" as="geometry" />
        </mxCell>
        <mxCell id="0qF3C7HbT4sm0VxjOWYy-35" value="L2 Access Switch" style="shape=mxgraph.cisco.switches.workgroup_switch;sketch=0;html=1;pointerEvents=1;dashed=0;fillColor=#036897;strokeColor=#ffffff;strokeWidth=2;verticalLabelPosition=bottom;verticalAlign=top;align=center;outlineConnect=0;labelBackgroundColor=#ECFF42;" parent="1" vertex="1">
          <mxGeometry x="1400" y="840" width="80" height="40" as="geometry" />
        </mxCell>
        <mxCell id="0qF3C7HbT4sm0VxjOWYy-43" style="edgeStyle=entityRelationEdgeStyle;rounded=0;orthogonalLoop=1;jettySize=auto;html=1;entryX=0.98;entryY=0.5;entryDx=0;entryDy=0;entryPerimeter=0;" parent="1" source="0qF3C7HbT4sm0VxjOWYy-36" target="0qF3C7HbT4sm0VxjOWYy-16" edge="1">
          <mxGeometry relative="1" as="geometry" />
        </mxCell>
        <mxCell id="0qF3C7HbT4sm0VxjOWYy-53" style="rounded=0;orthogonalLoop=1;jettySize=auto;html=1;entryX=0.5;entryY=0;entryDx=0;entryDy=0;entryPerimeter=0;exitX=0.5;exitY=0.98;exitDx=0;exitDy=0;exitPerimeter=0;" parent="1" source="0qF3C7HbT4sm0VxjOWYy-36" target="0qF3C7HbT4sm0VxjOWYy-50" edge="1">
          <mxGeometry relative="1" as="geometry" />
        </mxCell>
        <mxCell id="0qF3C7HbT4sm0VxjOWYy-54" style="edgeStyle=none;rounded=0;orthogonalLoop=1;jettySize=auto;html=1;entryX=0.5;entryY=0;entryDx=0;entryDy=0;entryPerimeter=0;" parent="1" source="0qF3C7HbT4sm0VxjOWYy-36" target="0qF3C7HbT4sm0VxjOWYy-49" edge="1">
          <mxGeometry relative="1" as="geometry" />
        </mxCell>
        <mxCell id="0qF3C7HbT4sm0VxjOWYy-59" style="edgeStyle=none;rounded=0;orthogonalLoop=1;jettySize=auto;html=1;exitX=0.5;exitY=0.98;exitDx=0;exitDy=0;exitPerimeter=0;entryX=0.5;entryY=0;entryDx=0;entryDy=0;entryPerimeter=0;" parent="1" source="0qF3C7HbT4sm0VxjOWYy-36" target="0qF3C7HbT4sm0VxjOWYy-51" edge="1">
          <mxGeometry relative="1" as="geometry" />
        </mxCell>
        <mxCell id="0qF3C7HbT4sm0VxjOWYy-36" value="L2 Access Switch" style="shape=mxgraph.cisco.switches.workgroup_switch;sketch=0;html=1;pointerEvents=1;dashed=0;fillColor=#036897;strokeColor=#ffffff;strokeWidth=2;verticalLabelPosition=bottom;verticalAlign=top;align=center;outlineConnect=0;labelBackgroundColor=#ECFF42;" parent="1" vertex="1">
          <mxGeometry x="1719" y="840" width="80" height="40" as="geometry" />
        </mxCell>
        <mxCell id="0qF3C7HbT4sm0VxjOWYy-49" value="Fileserver" style="shape=mxgraph.cisco.servers.fileserver;sketch=0;html=1;pointerEvents=1;dashed=0;fillColor=#036897;strokeColor=#ffffff;strokeWidth=2;verticalLabelPosition=bottom;verticalAlign=top;align=center;outlineConnect=0;labelBackgroundColor=#ECFF42;" parent="1" vertex="1">
          <mxGeometry x="1650" y="1040" width="43" height="62" as="geometry" />
        </mxCell>
        <mxCell id="0qF3C7HbT4sm0VxjOWYy-50" value="Fileserver" style="shape=mxgraph.cisco.servers.file_server;sketch=0;html=1;pointerEvents=1;dashed=0;fillColor=#036897;strokeColor=#ffffff;strokeWidth=2;verticalLabelPosition=bottom;verticalAlign=top;align=center;outlineConnect=0;labelBackgroundColor=#ECFF42;" parent="1" vertex="1">
          <mxGeometry x="1750" y="1040" width="43" height="58" as="geometry" />
        </mxCell>
        <mxCell id="0qF3C7HbT4sm0VxjOWYy-51" value="&amp;nbsp;Web Server" style="shape=mxgraph.cisco.servers.www_server;sketch=0;html=1;pointerEvents=1;dashed=0;fillColor=#036897;strokeColor=#ffffff;strokeWidth=2;verticalLabelPosition=bottom;verticalAlign=top;align=center;outlineConnect=0;labelBackgroundColor=#ECFF42;" parent="1" vertex="1">
          <mxGeometry x="1840" y="1040" width="66" height="67" as="geometry" />
        </mxCell>
        <mxCell id="0qF3C7HbT4sm0VxjOWYy-56" value="" style="shape=mxgraph.cisco.computers_and_peripherals.workstation;sketch=0;html=1;pointerEvents=1;dashed=0;fillColor=#036897;strokeColor=#ffffff;strokeWidth=2;verticalLabelPosition=bottom;verticalAlign=top;align=center;outlineConnect=0;labelBackgroundColor=#ECFF42;" parent="1" vertex="1">
          <mxGeometry x="1358.5" y="1050" width="83" height="62" as="geometry" />
        </mxCell>
        <mxCell id="0qF3C7HbT4sm0VxjOWYy-57" value="" style="shape=mxgraph.cisco.computers_and_peripherals.workstation;sketch=0;html=1;pointerEvents=1;dashed=0;fillColor=#036897;strokeColor=#ffffff;strokeWidth=2;verticalLabelPosition=bottom;verticalAlign=top;align=center;outlineConnect=0;labelBackgroundColor=#ECFF42;" parent="1" vertex="1">
          <mxGeometry x="1260" y="1050" width="83" height="62" as="geometry" />
        </mxCell>
        <mxCell id="0qF3C7HbT4sm0VxjOWYy-62" value="Supercomputer" style="shape=mxgraph.cisco.computers_and_peripherals.supercomputer;sketch=0;html=1;pointerEvents=1;dashed=0;fillColor=#036897;strokeColor=#ffffff;strokeWidth=2;verticalLabelPosition=bottom;verticalAlign=top;align=center;outlineConnect=0;labelBackgroundColor=#ECFF42;" parent="1" vertex="1">
          <mxGeometry x="1470" y="1040" width="83" height="99" as="geometry" />
        </mxCell>
        <mxCell id="0qF3C7HbT4sm0VxjOWYy-68" value="10Gb/s&lt;br&gt;LWL" style="text;html=1;align=center;verticalAlign=middle;resizable=0;points=[];autosize=1;strokeColor=none;fillColor=none;" parent="1" vertex="1">
          <mxGeometry x="1638" y="255" width="50" height="30" as="geometry" />
        </mxCell>
        <mxCell id="0qF3C7HbT4sm0VxjOWYy-69" value="DSL&lt;br&gt;100 Mbit/s" style="text;html=1;align=center;verticalAlign=middle;resizable=0;points=[];autosize=1;strokeColor=none;fillColor=none;" parent="1" vertex="1">
          <mxGeometry x="1500" y="255" width="70" height="30" as="geometry" />
        </mxCell>
        <mxCell id="M5t0T0_-1APzx_XPS4QD-1" value="10 Gbit/s&lt;br&gt;LWL" style="text;html=1;align=center;verticalAlign=middle;resizable=0;points=[];autosize=1;strokeColor=none;fillColor=none;" vertex="1" parent="1">
          <mxGeometry x="1330" y="475" width="60" height="30" as="geometry" />
        </mxCell>
        <mxCell id="M5t0T0_-1APzx_XPS4QD-2" value="Sophos XGS3100" style="text;html=1;align=center;verticalAlign=middle;resizable=0;points=[];autosize=1;strokeColor=none;fillColor=none;" vertex="1" parent="1">
          <mxGeometry x="1358.5" y="606" width="110" height="20" as="geometry" />
        </mxCell>
        <mxCell id="M5t0T0_-1APzx_XPS4QD-3" value="1 Gbit/s&lt;br&gt;Kupfer" style="text;html=1;align=center;verticalAlign=middle;resizable=0;points=[];autosize=1;strokeColor=none;fillColor=none;" vertex="1" parent="1">
          <mxGeometry x="1569" y="580" width="60" height="30" as="geometry" />
        </mxCell>
        <mxCell id="M5t0T0_-1APzx_XPS4QD-4" value="10 Gbit/s&lt;br&gt;LWL" style="text;html=1;align=center;verticalAlign=middle;resizable=0;points=[];autosize=1;strokeColor=none;fillColor=none;" vertex="1" parent="1">
          <mxGeometry x="1800" y="475" width="60" height="30" as="geometry" />
        </mxCell>
        <mxCell id="M5t0T0_-1APzx_XPS4QD-6" value="10 Gbit/s&lt;br&gt;LWL" style="text;html=1;align=center;verticalAlign=middle;resizable=0;points=[];autosize=1;strokeColor=none;fillColor=none;" vertex="1" parent="1">
          <mxGeometry x="1441.5" y="800" width="60" height="30" as="geometry" />
        </mxCell>
        <mxCell id="M5t0T0_-1APzx_XPS4QD-7" value="10 Gbit/s&lt;br&gt;LWL" style="text;html=1;align=center;verticalAlign=middle;resizable=0;points=[];autosize=1;strokeColor=none;fillColor=none;" vertex="1" parent="1">
          <mxGeometry x="1700" y="800" width="60" height="30" as="geometry" />
        </mxCell>
        <mxCell id="M5t0T0_-1APzx_XPS4QD-8" value="1 Gbit/s&lt;br&gt;Kupfer" style="text;html=1;align=center;verticalAlign=middle;resizable=0;points=[];autosize=1;strokeColor=none;fillColor=none;" vertex="1" parent="1">
          <mxGeometry x="1340" y="985" width="60" height="30" as="geometry" />
        </mxCell>
        <mxCell id="M5t0T0_-1APzx_XPS4QD-9" value="1 Gbit/s&lt;br&gt;Kupfer" style="text;html=1;align=center;verticalAlign=middle;resizable=0;points=[];autosize=1;strokeColor=none;fillColor=none;" vertex="1" parent="1">
          <mxGeometry x="1410" y="985" width="60" height="30" as="geometry" />
        </mxCell>
        <mxCell id="M5t0T0_-1APzx_XPS4QD-10" value="1 Gbit/s&lt;br&gt;Kupfer" style="text;html=1;align=center;verticalAlign=middle;resizable=0;points=[];autosize=1;strokeColor=none;fillColor=none;" vertex="1" parent="1">
          <mxGeometry x="1493" y="985" width="60" height="30" as="geometry" />
        </mxCell>
        <mxCell id="M5t0T0_-1APzx_XPS4QD-14" value="10 Gbit/s&lt;br&gt;Kupfer" style="text;html=1;align=center;verticalAlign=middle;resizable=0;points=[];autosize=1;strokeColor=none;fillColor=none;" vertex="1" parent="1">
          <mxGeometry x="1700" y="985" width="60" height="30" as="geometry" />
        </mxCell>
        <mxCell id="M5t0T0_-1APzx_XPS4QD-15" value="10 Gbit/s&lt;br&gt;Kupfer" style="text;html=1;align=center;verticalAlign=middle;resizable=0;points=[];autosize=1;strokeColor=none;fillColor=none;" vertex="1" parent="1">
          <mxGeometry x="1770" y="985" width="60" height="30" as="geometry" />
        </mxCell>
        <mxCell id="M5t0T0_-1APzx_XPS4QD-16" value="10 Gbit/s&lt;br&gt;Kupfer" style="text;html=1;align=center;verticalAlign=middle;resizable=0;points=[];autosize=1;strokeColor=none;fillColor=none;" vertex="1" parent="1">
          <mxGeometry x="1850" y="985" width="60" height="30" as="geometry" />
        </mxCell>
        <mxCell id="M5t0T0_-1APzx_XPS4QD-19" value="10 Gbit/s&lt;br&gt;LWL" style="text;html=1;align=center;verticalAlign=middle;resizable=0;points=[];autosize=1;strokeColor=none;fillColor=none;" vertex="1" parent="1">
          <mxGeometry x="1760" y="660" width="60" height="30" as="geometry" />
        </mxCell>
        <mxCell id="M5t0T0_-1APzx_XPS4QD-20" value="10 Gbit/s&lt;br&gt;LWL" style="text;html=1;align=center;verticalAlign=middle;resizable=0;points=[];autosize=1;strokeColor=none;fillColor=none;" vertex="1" parent="1">
          <mxGeometry x="1380" y="660" width="60" height="30" as="geometry" />
        </mxCell>
        <mxCell id="M5t0T0_-1APzx_XPS4QD-21" value="1 Gbit/s&lt;br&gt;LWL" style="text;html=1;align=center;verticalAlign=middle;resizable=0;points=[];autosize=1;strokeColor=none;fillColor=none;" vertex="1" parent="1">
          <mxGeometry x="1659" y="650" width="60" height="30" as="geometry" />
        </mxCell>
        <mxCell id="M5t0T0_-1APzx_XPS4QD-22" value="1 Gbit/s&lt;br&gt;LWL" style="text;html=1;align=center;verticalAlign=middle;resizable=0;points=[];autosize=1;strokeColor=none;fillColor=none;" vertex="1" parent="1">
          <mxGeometry x="1493" y="650" width="60" height="30" as="geometry" />
        </mxCell>
        <mxCell id="M5t0T0_-1APzx_XPS4QD-23" value="1 Gbit/s&lt;br&gt;LWL" style="text;html=1;align=center;verticalAlign=middle;resizable=0;points=[];autosize=1;strokeColor=none;fillColor=none;" vertex="1" parent="1">
          <mxGeometry x="1524" y="715" width="60" height="30" as="geometry" />
        </mxCell>
        <mxCell id="M5t0T0_-1APzx_XPS4QD-24" value="1 Gbit/s&lt;br&gt;LWL" style="text;html=1;align=center;verticalAlign=middle;resizable=0;points=[];autosize=1;strokeColor=none;fillColor=none;" vertex="1" parent="1">
          <mxGeometry x="1614" y="715" width="60" height="30" as="geometry" />
        </mxCell>
      </root>
    </mxGraphModel>
  </diagram>
</mxfile>
